<?xml version="1.0" encoding="UTF-8" standalone="no"?>
<!DOCTYPE svg PUBLIC "-//W3C//DTD SVG 1.1//EN"
 "http://www.w3.org/Graphics/SVG/1.1/DTD/svg11.dtd">
<!-- Generated by graphviz version 2.42.3 (20191010.1750)
 -->
<!-- Title: Database Structure Pages: 1 -->
<svg width="645pt" height="476pt"
 viewBox="0.00 0.00 645.14 476.00" xmlns="http://www.w3.org/2000/svg" xmlns:xlink="http://www.w3.org/1999/xlink">
<g id="graph0" class="graph" transform="scale(1 1) rotate(0) translate(4 472)">
<title>Database Structure</title>
<polygon fill="white" stroke="transparent" points="-4,4 -4,-472 641.14,-472 641.14,4 -4,4"/>
<text text-anchor="middle" x="318.57" y="-452.8" font-family="Helvetica,sans-Serif" font-size="14.00">ER Diagram: Casino</text>
<!-- countries -->
<g id="node1" class="node">
<title>countries</title>
<polygon fill="#dddddd" stroke="transparent" points="327.14,-422 327.14,-442 415.14,-442 415.14,-422 327.14,-422"/>
<polygon fill="none" stroke="black" points="327.14,-422 327.14,-442 415.14,-442 415.14,-422 327.14,-422"/>
<text text-anchor="start" x="345.48" y="-427.8" font-family="Times,serif" font-size="14.00">countries</text>
<polygon fill="none" stroke="black" points="327.14,-402 327.14,-422 415.14,-422 415.14,-402 327.14,-402"/>
<text text-anchor="start" x="355.7" y="-408.8" font-family="Times,serif" font-size="14.00">id:</text>
<text text-anchor="start" x="370.48" y="-408.8" font-family="Helvetica,sans-Serif" font-style="oblique" font-size="10.00">INT</text>
<polygon fill="none" stroke="black" points="327.14,-382 327.14,-402 415.14,-402 415.14,-382 327.14,-382"/>
<text text-anchor="start" x="329.96" y="-388.8" font-family="Times,serif" font-size="14.00">name:</text>
<text text-anchor="start" x="364.17" y="-388.8" font-family="Helvetica,sans-Serif" font-style="oblique" font-size="10.00">VARCHAR</text>
</g>
<!-- game_country_pivot -->
<g id="node2" class="node">
<title>game_country_pivot</title>
<polygon fill="#dddddd" stroke="transparent" points="44.14,-409 44.14,-429 165.14,-429 165.14,-409 44.14,-409"/>
<polygon fill="none" stroke="black" points="44.14,-409 44.14,-429 165.14,-429 165.14,-409 44.14,-409"/>
<text text-anchor="start" x="46.71" y="-414.8" font-family="Times,serif" font-size="14.00">game_country_pivot</text>
<polygon fill="none" stroke="black" points="44.14,-389 44.14,-409 165.14,-409 165.14,-389 44.14,-389"/>
<text text-anchor="start" x="89.2" y="-395.8" font-family="Times,serif" font-size="14.00">id:</text>
<text text-anchor="start" x="103.98" y="-395.8" font-family="Helvetica,sans-Serif" font-style="oblique" font-size="10.00">INT</text>
<polygon fill="none" stroke="black" points="44.14,-369 44.14,-389 165.14,-389 165.14,-369 44.14,-369"/>
<text text-anchor="start" x="64.32" y="-375.8" font-family="Times,serif" font-size="14.00">country_id:</text>
<text text-anchor="start" x="128.86" y="-375.8" font-family="Helvetica,sans-Serif" font-style="oblique" font-size="10.00">INT</text>
<polygon fill="none" stroke="black" points="44.14,-349 44.14,-369 165.14,-369 165.14,-349 44.14,-349"/>
<text text-anchor="start" x="70.54" y="-355.8" font-family="Times,serif" font-size="14.00">game_id:</text>
<text text-anchor="start" x="122.64" y="-355.8" font-family="Helvetica,sans-Serif" font-style="oblique" font-size="10.00">INT</text>
</g>
<!-- game_country_pivot&#45;&gt;countries -->
<g id="edge1" class="edge">
<title>game_country_pivot:country_id&#45;&gt;countries:id</title>
<path fill="none" stroke="#444444" stroke-dasharray="5,2" d="M166.14,-379C235.21,-379 251.95,-408.86 315.91,-411.77"/>
<polygon fill="#444444" stroke="#444444" points="326.06,-415.5 316.15,-411.78 326.22,-408.5 326.06,-415.5"/>
</g>
<!-- games -->
<g id="node4" class="node">
<title>games</title>
<polygon fill="#dddddd" stroke="transparent" points="319.14,-336 319.14,-356 424.14,-356 424.14,-336 319.14,-336"/>
<polygon fill="none" stroke="black" points="319.14,-336 319.14,-356 424.14,-356 424.14,-336 319.14,-336"/>
<text text-anchor="start" x="353.76" y="-341.8" font-family="Times,serif" font-size="14.00">games</text>
<polygon fill="none" stroke="black" points="319.14,-316 319.14,-336 424.14,-336 424.14,-316 319.14,-316"/>
<text text-anchor="start" x="356.2" y="-322.8" font-family="Times,serif" font-size="14.00">id:</text>
<text text-anchor="start" x="370.98" y="-322.8" font-family="Helvetica,sans-Serif" font-style="oblique" font-size="10.00">INT</text>
<polygon fill="none" stroke="black" points="319.14,-296 319.14,-316 424.14,-316 424.14,-296 319.14,-296"/>
<text text-anchor="start" x="330.46" y="-302.8" font-family="Times,serif" font-size="14.00">name:</text>
<text text-anchor="start" x="364.67" y="-302.8" font-family="Helvetica,sans-Serif" font-style="oblique" font-size="10.00">VARCHAR</text>
<polygon fill="none" stroke="black" points="319.14,-276 319.14,-296 424.14,-296 424.14,-276 319.14,-276"/>
<text text-anchor="start" x="321.99" y="-282.8" font-family="Times,serif" font-size="14.00">game_type_id:</text>
<text text-anchor="start" x="405.19" y="-282.8" font-family="Helvetica,sans-Serif" font-style="oblique" font-size="10.00">INT</text>
</g>
<!-- game_country_pivot&#45;&gt;games -->
<g id="edge2" class="edge">
<title>game_country_pivot:game_id&#45;&gt;games:id</title>
<path fill="none" stroke="#444444" stroke-dasharray="5,2" d="M166.14,-359C231.76,-359 247.48,-329.27 308.03,-326.25"/>
<polygon fill="#444444" stroke="#444444" points="318.23,-329.5 308.15,-326.24 318.06,-322.5 318.23,-329.5"/>
</g>
<!-- game_types -->
<g id="node3" class="node">
<title>game_types</title>
<polygon fill="#dddddd" stroke="transparent" points="541.14,-296 541.14,-316 629.14,-316 629.14,-296 541.14,-296"/>
<polygon fill="none" stroke="black" points="541.14,-296 541.14,-316 629.14,-316 629.14,-296 541.14,-296"/>
<text text-anchor="start" x="551.71" y="-301.8" font-family="Times,serif" font-size="14.00">game_types</text>
<polygon fill="none" stroke="black" points="541.14,-276 541.14,-296 629.14,-296 629.14,-276 541.14,-276"/>
<text text-anchor="start" x="569.7" y="-282.8" font-family="Times,serif" font-size="14.00">id:</text>
<text text-anchor="start" x="584.48" y="-282.8" font-family="Helvetica,sans-Serif" font-style="oblique" font-size="10.00">INT</text>
<polygon fill="none" stroke="black" points="541.14,-256 541.14,-276 629.14,-276 629.14,-256 541.14,-256"/>
<text text-anchor="start" x="543.96" y="-262.8" font-family="Times,serif" font-size="14.00">name:</text>
<text text-anchor="start" x="578.17" y="-262.8" font-family="Helvetica,sans-Serif" font-style="oblique" font-size="10.00">VARCHAR</text>
</g>
<!-- games&#45;&gt;game_types -->
<g id="edge3" class="edge">
<title>games:game_type_id&#45;&gt;game_types:id</title>
<path fill="none" stroke="#444444" stroke-dasharray="5,2" d="M425.14,-286C472.66,-286 487.05,-286 529.9,-286"/>
<polygon fill="#444444" stroke="#444444" points="540.14,-289.5 530.14,-286 540.14,-282.5 540.14,-289.5"/>
</g>
<!-- people -->
<g id="node5" class="node">
<title>people</title>
<polygon fill="#dddddd" stroke="transparent" points="307.14,-230 307.14,-250 435.14,-250 435.14,-230 307.14,-230"/>
<polygon fill="none" stroke="black" points="307.14,-230 307.14,-250 435.14,-250 435.14,-230 307.14,-230"/>
<text text-anchor="start" x="352.48" y="-235.8" font-family="Times,serif" font-size="14.00">people</text>
<polygon fill="none" stroke="black" points="307.14,-210 307.14,-230 435.14,-230 435.14,-210 307.14,-210"/>
<text text-anchor="start" x="355.7" y="-216.8" font-family="Times,serif" font-size="14.00">id:</text>
<text text-anchor="start" x="370.48" y="-216.8" font-family="Helvetica,sans-Serif" font-style="oblique" font-size="10.00">INT</text>
<polygon fill="none" stroke="black" points="307.14,-190 307.14,-210 435.14,-210 435.14,-190 307.14,-190"/>
<text text-anchor="start" x="329.57" y="-196.8" font-family="Times,serif" font-size="14.00">email:</text>
<text text-anchor="start" x="364.56" y="-196.8" font-family="Helvetica,sans-Serif" font-style="oblique" font-size="10.00">VARCHAR</text>
<polygon fill="none" stroke="black" points="307.14,-170 307.14,-190 435.14,-190 435.14,-170 307.14,-170"/>
<text text-anchor="start" x="315.57" y="-176.8" font-family="Times,serif" font-size="14.00">first_name:</text>
<text text-anchor="start" x="378.56" y="-176.8" font-family="Helvetica,sans-Serif" font-style="oblique" font-size="10.00">VARCHAR</text>
<polygon fill="none" stroke="black" points="307.14,-150 307.14,-170 435.14,-170 435.14,-150 307.14,-150"/>
<text text-anchor="start" x="316.74" y="-156.8" font-family="Times,serif" font-size="14.00">last_name:</text>
<text text-anchor="start" x="377.39" y="-156.8" font-family="Helvetica,sans-Serif" font-style="oblique" font-size="10.00">VARCHAR</text>
<polygon fill="none" stroke="black" points="307.14,-130 307.14,-150 435.14,-150 435.14,-130 307.14,-130"/>
<text text-anchor="start" x="311.64" y="-136.8" font-family="Times,serif" font-size="14.00">created_at:</text>
<text text-anchor="start" x="373.04" y="-136.8" font-family="Helvetica,sans-Serif" font-style="oblique" font-size="10.00">TIMESTAMP</text>
<polygon fill="none" stroke="black" points="307.14,-110 307.14,-130 435.14,-130 435.14,-110 307.14,-110"/>
<text text-anchor="start" x="309.69" y="-116.8" font-family="Times,serif" font-size="14.00">updated_at:</text>
<text text-anchor="start" x="375" y="-116.8" font-family="Helvetica,sans-Serif" font-style="oblique" font-size="10.00">TIMESTAMP</text>
<polygon fill="none" stroke="black" points="307.14,-90 307.14,-110 435.14,-110 435.14,-90 307.14,-90"/>
<text text-anchor="start" x="311.64" y="-96.8" font-family="Times,serif" font-size="14.00">deleted_at:</text>
<text text-anchor="start" x="373.05" y="-96.8" font-family="Helvetica,sans-Serif" font-style="oblique" font-size="10.00">TIMESTAMP</text>
</g>
<!-- people_favourite_games_pivot -->
<g id="node6" class="node">
<title>people_favourite_games_pivot</title>
<polygon fill="#dddddd" stroke="transparent" points="8.14,-293 8.14,-313 201.14,-313 201.14,-293 8.14,-293"/>
<polygon fill="none" stroke="black" points="8.14,-293 8.14,-313 201.14,-313 201.14,-293 8.14,-293"/>
<text text-anchor="start" x="17.95" y="-298.8" font-family="Times,serif" font-size="14.00">people_favourite_games_pivot</text>
<polygon fill="none" stroke="black" points="8.14,-273 8.14,-293 201.14,-293 201.14,-273 8.14,-273"/>
<text text-anchor="start" x="89.2" y="-279.8" font-family="Times,serif" font-size="14.00">id:</text>
<text text-anchor="start" x="103.98" y="-279.8" font-family="Helvetica,sans-Serif" font-style="oblique" font-size="10.00">INT</text>
<polygon fill="none" stroke="black" points="8.14,-253 8.14,-273 201.14,-273 201.14,-253 8.14,-253"/>
<text text-anchor="start" x="67.04" y="-259.8" font-family="Times,serif" font-size="14.00">person_id:</text>
<text text-anchor="start" x="126.14" y="-259.8" font-family="Helvetica,sans-Serif" font-style="oblique" font-size="10.00">INT</text>
<polygon fill="none" stroke="black" points="8.14,-233 8.14,-253 201.14,-253 201.14,-233 8.14,-233"/>
<text text-anchor="start" x="10.67" y="-239.8" font-family="Times,serif" font-size="14.00">people_favourite_game_pivot:</text>
<text text-anchor="start" x="182.51" y="-239.8" font-family="Helvetica,sans-Serif" font-style="oblique" font-size="10.00">INT</text>
</g>
<!-- people_favourite_games_pivot&#45;&gt;games -->
<g id="edge4" class="edge">
<title>people_favourite_games_pivot:people_favourite_game_pivot&#45;&gt;games:id</title>
<path fill="none" stroke="#444444" stroke-dasharray="5,2" d="M202.14,-243C261.95,-243 255.73,-316.86 308.06,-325.23"/>
<polygon fill="#444444" stroke="#444444" points="317.88,-329.49 308.17,-325.24 318.41,-322.51 317.88,-329.49"/>
</g>
<!-- people_favourite_games_pivot&#45;&gt;people -->
<g id="edge5" class="edge">
<title>people_favourite_games_pivot:person_id&#45;&gt;people:id</title>
<path fill="none" stroke="#444444" stroke-dasharray="5,2" d="M202.14,-263C248.55,-263 255.31,-225.99 295.99,-220.64"/>
<polygon fill="#444444" stroke="#444444" points="306.36,-223.49 296.16,-220.63 305.92,-216.51 306.36,-223.49"/>
</g>
<!-- people_roles_pivot -->
<g id="node7" class="node">
<title>people_roles_pivot</title>
<polygon fill="#dddddd" stroke="transparent" points="48.14,-147 48.14,-167 161.14,-167 161.14,-147 48.14,-147"/>
<polygon fill="none" stroke="black" points="48.14,-147 48.14,-167 161.14,-167 161.14,-147 48.14,-147"/>
<text text-anchor="start" x="50.99" y="-152.8" font-family="Times,serif" font-size="14.00">people_roles_pivot</text>
<polygon fill="none" stroke="black" points="48.14,-127 48.14,-147 161.14,-147 161.14,-127 48.14,-127"/>
<text text-anchor="start" x="89.2" y="-133.8" font-family="Times,serif" font-size="14.00">id:</text>
<text text-anchor="start" x="103.98" y="-133.8" font-family="Helvetica,sans-Serif" font-style="oblique" font-size="10.00">INT</text>
<polygon fill="none" stroke="black" points="48.14,-107 48.14,-127 161.14,-127 161.14,-107 48.14,-107"/>
<text text-anchor="start" x="67.04" y="-113.8" font-family="Times,serif" font-size="14.00">person_id:</text>
<text text-anchor="start" x="126.14" y="-113.8" font-family="Helvetica,sans-Serif" font-style="oblique" font-size="10.00">INT</text>
<polygon fill="none" stroke="black" points="48.14,-87 48.14,-107 161.14,-107 161.14,-87 48.14,-87"/>
<text text-anchor="start" x="74.82" y="-93.8" font-family="Times,serif" font-size="14.00">role_id:</text>
<text text-anchor="start" x="118.36" y="-93.8" font-family="Helvetica,sans-Serif" font-style="oblique" font-size="10.00">INT</text>
</g>
<!-- people_roles_pivot&#45;&gt;people -->
<g id="edge7" class="edge">
<title>people_roles_pivot:person_id&#45;&gt;people:id</title>
<path fill="none" stroke="#444444" stroke-dasharray="5,2" d="M162.14,-117C237.29,-117 228.47,-210.95 296.08,-219.4"/>
<polygon fill="#444444" stroke="#444444" points="305.93,-223.49 296.16,-219.4 306.35,-216.51 305.93,-223.49"/>
</g>
<!-- roles -->
<g id="node8" class="node">
<title>roles</title>
<polygon fill="#dddddd" stroke="transparent" points="327.14,-44 327.14,-64 415.14,-64 415.14,-44 327.14,-44"/>
<polygon fill="none" stroke="black" points="327.14,-44 327.14,-64 415.14,-64 415.14,-44 327.14,-44"/>
<text text-anchor="start" x="357.54" y="-49.8" font-family="Times,serif" font-size="14.00">roles</text>
<polygon fill="none" stroke="black" points="327.14,-24 327.14,-44 415.14,-44 415.14,-24 327.14,-24"/>
<text text-anchor="start" x="355.7" y="-30.8" font-family="Times,serif" font-size="14.00">id:</text>
<text text-anchor="start" x="370.48" y="-30.8" font-family="Helvetica,sans-Serif" font-style="oblique" font-size="10.00">INT</text>
<polygon fill="none" stroke="black" points="327.14,-4 327.14,-24 415.14,-24 415.14,-4 327.14,-4"/>
<text text-anchor="start" x="329.96" y="-10.8" font-family="Times,serif" font-size="14.00">name:</text>
<text text-anchor="start" x="364.17" y="-10.8" font-family="Helvetica,sans-Serif" font-style="oblique" font-size="10.00">VARCHAR</text>
</g>
<!-- people_roles_pivot&#45;&gt;roles -->
<g id="edge6" class="edge">
<title>people_roles_pivot:role_id&#45;&gt;roles:id</title>
<path fill="none" stroke="#444444" stroke-dasharray="5,2" d="M162.14,-97C236.72,-97 247.22,-39.53 316.03,-34.37"/>
<polygon fill="#444444" stroke="#444444" points="326.27,-37.5 316.15,-34.37 326.01,-30.5 326.27,-37.5"/>
</g>
</g>
</svg>
